<?xml version="1.0" encoding="utf-8"?>
<!-- Generator: Adobe Illustrator 25.2.1, SVG Export Plug-In . SVG Version: 6.00 Build 0)  -->
<svg version="1.1" id="Layer_1" xmlns="http://www.w3.org/2000/svg" xmlns:xlink="http://www.w3.org/1999/xlink" x="0px" y="0px"
	 viewBox="0 0 20 20" style="enable-background:new 0 0 20 20;" xml:space="preserve">
<style type="text/css">
	.st0{fill:#231F20;}
	.st1{fill:#326CF4;}
	.st2{fill:#FFFFFF;}
</style>
<g>
	<path class="st0" d="M19.7,19.7H0.3c-0.1,0-0.2-0.1-0.2-0.2V6c0-0.1,0.1-0.2,0.2-0.2h19.4c0.1,0,0.2,0.1,0.2,0.2v13.5
		C19.9,19.6,19.8,19.7,19.7,19.7z"/>
	<polyline class="st0" points="17.3,5.8 17.3,0.3 2.7,5.8 	"/>
	<polygon class="st1" points="18.7,2.7 1.3,5.8 18.7,5.8 	"/>
	<path class="st2" d="M5,11.2c0,0,0,0.1,0,0.1c0,2.7,2.2,4.8,5,4.8s5-2.1,5-4.8c0,0,0-0.1,0-0.1H5z"/>
</g>
</svg>
