<?xml version="1.0" encoding="utf-8"?>
<!-- Generator: Adobe Illustrator 25.2.1, SVG Export Plug-In . SVG Version: 6.00 Build 0)  -->
<svg version="1.1" id="Layer_1" xmlns="http://www.w3.org/2000/svg" xmlns:xlink="http://www.w3.org/1999/xlink" x="0px" y="0px"
	 viewBox="0 0 1080 1080" style="enable-background:new 0 0 1080 1080;" xml:space="preserve">
<style type="text/css">
	.st0{enable-background:new    ;}
	.st1{fill:#231F20;}
	.st2{fill:#326CF4;}
	.st3{fill:#FFFFFF;}
	.st4{fill:#316DF4;}
</style>
<g class="st0">
	<path class="st1" d="M461.4,502.1l-20.9,106.1h-27.7l10.9-55.9l-35.3,45.5h-13.2l-19.3-45.5l-11.2,55.9H317l21.2-106.1h24.4
		l24.9,61.4l48.2-61.4H461.4z"/>
	<path class="st1" d="M476.7,526h28.7L489,608.2h-28.7L476.7,526z M483.1,512.9c-3-2.7-4.5-6.1-4.5-10.2c0-4.7,1.7-8.7,5.1-11.7
		c3.4-3.1,7.9-4.6,13.4-4.6c5.1,0,9.1,1.3,12.1,3.9c3,2.6,4.5,5.9,4.5,9.9c0,5-1.7,9-5.2,12.1c-3.4,3.1-7.9,4.7-13.5,4.7
		C490.1,517,486.1,515.6,483.1,512.9z"/>
	<path class="st1" d="M519.4,607.3c-6.5-1.5-11.6-3.4-15.2-5.8l10.5-20.2c3.7,2.3,8.2,4.2,13.3,5.5c5.2,1.4,10.2,2,15.2,2
		c8.8,0,13.2-2,13.2-5.9c0-1.6-1-2.8-3.1-3.6c-2.1-0.8-5.4-1.5-9.9-2.2c-6.1-1.1-11-2.3-14.9-3.6c-3.9-1.3-7.3-3.4-10.2-6.4
		c-2.9-3-4.4-7.3-4.4-12.7c0-9.5,4.1-16.9,12.2-22.1c8.1-5.2,18.7-7.8,31.6-7.8c5.9,0,11.5,0.6,17,1.7c5.5,1.2,10.2,2.8,14.3,4.8
		l-10.2,20.2c-6.9-4.1-15-6.2-24.4-6.2c-4.4,0-7.8,0.6-9.9,1.7c-2.2,1.2-3.3,2.7-3.3,4.5c0,1.6,1,2.8,3.1,3.6
		c2.1,0.8,5.5,1.6,10.2,2.5c5.9,1,10.7,2.2,14.6,3.5c3.9,1.3,7.3,3.5,10.2,6.5c2.9,3,4.3,7.2,4.3,12.4c0,9.5-4.1,16.8-12.3,22
		c-8.2,5.2-18.6,7.7-31.4,7.7C532.7,609.6,525.9,608.8,519.4,607.3z"/>
</g>
<path class="st1" d="M257.7,646.3H2.5c-1.3,0-2.5-1.1-2.5-2.5V466.7c0-1.3,1.1-2.5,2.5-2.5h255.1c1.3,0,2.5,1.1,2.5,2.5v177
	C260.1,645.1,259,646.3,257.7,646.3z"/>
<polyline class="st1" points="192.6,464.5 192.6,392.8 0,464.5 "/>
<polygon class="st2" points="229.4,423.5 0,464.5 229.4,464.5 "/>
<path class="st3" d="M63.5,535.2c0,0.4,0,0.9,0,1.5c0,34.8,29.4,63.1,65.5,63.1s65.5-28.2,65.5-63.1c0-0.4,0-0.9,0-1.5H63.5z"/>
<g class="st0">
	<path class="st4" d="M628.7,502.3h30l-16.4,82.3h50.6l-4.9,23.8h-80.7L628.7,502.3z"/>
	<path class="st4" d="M801,526.2l-16.4,82.2h-27.3l1.7-8.5c-3.5,3.3-7.5,5.8-11.9,7.4c-4.4,1.6-8.9,2.4-13.6,2.4
		c-9,0-16.1-2.4-21.5-7.3c-5.3-4.9-8-11.8-8-20.8c0-3.3,0.4-6.7,1.1-10.2l9.1-45.3h28.8l-8.5,42.6c-0.4,1.9-0.6,3.8-0.6,5.6
		c0,7.2,3.7,10.8,11.1,10.8c5,0,9-1.5,12.3-4.6c3.2-3.1,5.5-7.7,6.7-13.7l8.2-40.6H801z"/>
	<path class="st4" d="M826.3,605.1c-6.5-3.1-11.6-7.5-15.2-13.1c-3.6-5.7-5.4-12.2-5.4-19.7c0-9,2.2-17.1,6.5-24.3
		c4.3-7.2,10.4-12.8,18.2-17c7.8-4.1,16.5-6.2,26.2-6.2c9.3,0,17.3,1.9,24.1,5.8c6.8,3.9,11.7,9.4,14.9,16.4l-24.6,11.7
		c-3-7.3-8.3-10.9-15.9-10.9c-5.9,0-10.7,2.1-14.5,6.4c-3.8,4.2-5.7,9.7-5.7,16.4c0,4.9,1.4,8.7,4.2,11.6c2.8,2.9,6.7,4.3,11.9,4.3
		c3.8,0,7.2-0.9,10.2-2.6c2.9-1.7,5.5-4.4,7.6-8.2l21.1,12.7c-3.9,6.7-9.5,11.9-16.6,15.6c-7.1,3.7-15.2,5.6-24.2,5.6
		C840.4,609.8,832.8,608.2,826.3,605.1z"/>
	<path class="st4" d="M996.8,526.2l-16.4,82.2h-27.3l1.7-7.7c-6.6,6.1-14.5,9.1-23.8,9.1c-6.1,0-11.7-1.5-17.1-4.5
		c-5.3-3-9.6-7.3-12.8-13c-3.2-5.7-4.9-12.3-4.9-20c0-8.9,2-17,6-24.2c4-7.2,9.4-12.9,16.2-17.1c6.8-4.1,14.3-6.2,22.4-6.2
		c11.9,0,20.3,3.7,25.2,11.2l2-9.9H996.8z M955.1,580.2c3.6-4.2,5.5-9.8,5.5-16.5c0-4.9-1.4-8.7-4.2-11.5c-2.8-2.8-6.6-4.2-11.4-4.2
		c-5.8,0-10.5,2.1-14.1,6.4c-3.6,4.2-5.5,9.8-5.5,16.7c0,4.9,1.4,8.7,4.2,11.4c2.8,2.8,6.6,4.2,11.4,4.2
		C946.7,586.6,951.4,584.4,955.1,580.2z"/>
	<path class="st4" d="M1010.6,607.5c-6.5-1.5-11.6-3.4-15.2-5.8l10.5-20.2c3.7,2.3,8.2,4.2,13.3,5.5c5.2,1.4,10.2,2,15.2,2
		c8.8,0,13.2-2,13.2-5.9c0-1.6-1-2.8-3.1-3.6c-2.1-0.8-5.4-1.5-9.9-2.2c-6.1-1.1-11-2.3-14.9-3.6c-3.9-1.3-7.3-3.4-10.2-6.4
		c-2.9-3-4.4-7.3-4.4-12.7c0-9.5,4.1-16.9,12.2-22.1c8.1-5.2,18.7-7.8,31.6-7.8c5.9,0,11.5,0.6,17,1.7c5.5,1.2,10.2,2.8,14.3,4.8
		l-10.2,20.2c-6.9-4.1-15-6.2-24.4-6.2c-4.4,0-7.8,0.6-9.9,1.7c-2.2,1.2-3.3,2.7-3.3,4.5c0,1.6,1,2.8,3.1,3.6
		c2.1,0.8,5.5,1.6,10.2,2.5c5.9,1,10.7,2.2,14.6,3.5c3.9,1.3,7.3,3.5,10.2,6.5c2.9,3,4.3,7.2,4.3,12.4c0,9.5-4.1,16.8-12.3,22
		c-8.2,5.2-18.6,7.7-31.4,7.7C1024,609.8,1017.2,609,1010.6,607.5z"/>
</g>
</svg>
