<?xml version="1.0" encoding="utf-8"?>
<!-- Generator: Adobe Illustrator 25.2.1, SVG Export Plug-In . SVG Version: 6.00 Build 0)  -->
<svg version="1.1" id="Layer_1" xmlns="http://www.w3.org/2000/svg" xmlns:xlink="http://www.w3.org/1999/xlink" x="0px" y="0px"
	 viewBox="0 0 1080 1080" style="enable-background:new 0 0 1080 1080;" xml:space="preserve">
<style type="text/css">
	.st0{fill:#F3F5F8;}
	.st1{fill:#6FAFD8;}
	.st2{fill:#E2F3F7;}
	.st3{fill:#5DA05F;}
	.st4{fill:#427D41;}
	.st5{fill:#FFFFFF;}
	.st6{fill:#7FC45B;}
	.st7{fill:#353635;}
	.st8{fill:#6DA296;}
	.st9{fill:#FDC20F;}
	.st10{fill:#F47D20;}
	.st11{fill:#F9A01B;}
	.st12{fill:#FFDF82;}
	.st13{opacity:0.2;fill:#6FAFD8;enable-background:new    ;}
	.st14{opacity:0.2;fill:#B1C8E8;enable-background:new    ;}
	.st15{opacity:0.5;}
	.st16{fill:#FFD529;}
	.st17{fill:#F4CA93;}
	.st18{fill:#FFDFAE;}
	.st19{fill:#A2D292;}
	.st20{fill:#88C873;}
	.st21{fill:#364D37;}
	.st22{fill:#A6D492;}
</style>
<path id="Background-18" class="st0" d="M9.29,665.43c25.29-57.64,190.07-81.51,213.39-149.95
	c36.76-107.87-53.26-354.11,74.13-392.95c79.6-24.27,194.3,36.04,278.73,115.38c64.25,60.38,324.47-162.63,434.36,23.82
	c37.34,63.36-47.58,92.28,40.37,268.18c86.13,172.26-73.39,422.6-432.06,300.22C508.3,792.63-88.76,888.91,9.29,665.43z"/>
<path id="Shape-1877" class="st1" d="M847.45,341.68V314.1H480.13v27.68c-29.57,1.88-52.61,26.36-52.71,55.99V819.6
	c0.03,10.11,8.22,18.3,18.33,18.33h439.33c10.11-0.03,18.3-8.22,18.33-18.33V397.77C903.31,366.89,878.34,341.85,847.45,341.68z"/>
<path id="Shape-1878" class="st2" d="M835.9,368.02V314.1H509.88v54.02c-26.24,1.67-46.7,23.4-46.78,49.69v374.4
	c0.02,8.98,7.29,16.24,16.27,16.27h389.93c8.98-0.02,16.24-7.29,16.27-16.27v-374.4C885.48,390.4,863.32,368.18,835.9,368.02z"/>
<path id="Shape-1879" class="st3" d="M501.39,238.69h326.42c18.68,0,33.83,15.15,33.83,33.83l0,0v41.87c0,2.98-2.41,5.39-5.39,5.39
	H472.95c-2.98,0-5.39-2.41-5.39-5.39l0,0v-41.87C467.56,253.84,482.7,238.69,501.39,238.69L501.39,238.69z"/>
<path id="Shape-1880" class="st4" d="M495.47,250.85h338.25c15.35,0-2.9,42.17-168.32,42.17
	C498.37,293.02,480.12,250.85,495.47,250.85z"/>
<path id="Shape-1881" class="st5" d="M590.81,265.45h147.58c2.46,0.04,4.43,2.06,4.39,4.53c-0.04,2.41-1.98,4.36-4.39,4.39H590.81
	c-2.46-0.04-4.43-2.06-4.39-4.53C586.45,267.43,588.4,265.48,590.81,265.45z"/>
<path id="Shape-1882" class="st6" d="M870.1,650.34c-0.04-4.23-30.84-151.92-30.84-151.92S628.91,593.9,568.51,552.5
	c-2.28-1.56,10.19,193.1,10.19,193.1S870.82,726.92,870.1,650.34z"/>
<path id="Shape-1883" class="st7" d="M584.66,736.85l-0.26-3.98c-0.03-0.4-2.66-40.38-5.03-79.97c-1.39-23.26-2.43-41.85-3.07-55.24
	c-0.38-7.97-0.63-14.18-0.73-18.45c-0.18-7.23-0.23-9.41,2.16-10.81l2.16-1.27l2.14,1.37c21.19,13.8,69.95,8.22,141.03-16.14
	c35.13-12.23,69.6-26.3,103.27-42.13l4.6-2.22l1.12,4.98c0.08,0.34,7.65,34.11,15.01,67.92c15.08,69.33,14.6,71.11,14.17,72.68l0,0
	c-8.04,29.6-56.66,52.55-144.5,68.23c-64.44,11.5-127.45,14.78-128.07,14.82L584.66,736.85z M583.64,578.53
	c0.51,21.59,5.09,96.5,8.59,149.78c14.79-0.92,68.47-4.72,123.14-14.48c104.29-18.63,132.64-43.85,137.9-61.9
	c-0.56-7.7-16.57-81.06-28.03-132.22c-13.44,6.26-54.45,24.87-99.55,40.32C656.94,583.59,609.23,589.8,583.64,578.53z M853.4,651.47
	v0.01V651.47z"/>
<g id="Shape-1884" transform="translate(141.651 91.264)">
	<g id="Group_3191" transform="translate(0 6.336)">
		<path id="Path_1662" class="st7" d="M568.11,561.6c5.3,3.08,11.33,4.69,17.46,4.66c9.92-0.14,15.64-5.46,15.53-13.04
			c-0.1-7.02-4.17-10.98-14.37-14.74c-12.32-4.17-19.99-10.42-20.14-21.01c-0.17-11.7,9.41-20.54,24.01-20.74
			c7.69-0.11,13.29,1.6,16.66,3.44l-2.56,7.95c-4.42-2.29-9.34-3.45-14.32-3.36c-10.25,0.15-14.07,6.33-14,11.46
			c0.1,7.02,4.72,10.42,15.14,14.28c12.77,4.72,19.33,10.76,19.48,21.8c0.16,11.6-8.28,21.74-26,21.99
			c-7.24,0.1-15.19-1.9-19.24-4.52L568.11,561.6z"/>
	</g>
	
		<rect id="Rectangle_3996" x="583.44" y="496.9" transform="matrix(0.9999 -0.014 0.014 0.9999 -6.9822 8.2732)" class="st7" width="8.09" height="11.98"/>
	
		<rect id="Rectangle_3997" x="584.53" y="574.02" transform="matrix(0.9999 -0.014 0.014 0.9999 -8.0617 8.296)" class="st7" width="8.09" height="11.98"/>
</g>
<path id="Shape-1885" class="st7" d="M833.28,522.12c-1.57,4.87-6.79,7.55-11.66,5.98c-4.87-1.57-7.55-6.79-5.98-11.66
	c0.01-0.04,0.03-0.09,0.04-0.13c0.1-0.32,5.36-0.39,9.88,1.11C829.83,518.84,833.38,521.82,833.28,522.12z"/>
<path id="Shape-1886" class="st7" d="M850.16,665.65c-6.05-0.92-10.22-6.57-9.3-12.63c0.92-6.05,6.57-10.22,12.63-9.3
	c0.23,0.03,0.45,0.08,0.68,0.12c0.4,0.07,1.41,6.3,0.37,11.9C853.55,661.03,850.54,665.72,850.16,665.65z"/>
<path id="Shape-1887" class="st8" d="M591.39,574.55c3.17,4.02,2.49,9.84-1.53,13.02c-4.02,3.17-9.84,2.49-13.02-1.53
	c-0.21-0.26,1.17-6.8,4.91-9.74C585.3,573.51,591.2,574.3,591.39,574.55z"/>
<path id="Shape-1888" class="st8" d="M585.88,720.47c3.15-4.03,8.98-4.74,13.01-1.59c4.03,3.15,4.74,8.98,1.59,13.01
	c-0.21,0.26-6.88,0.46-10.63-2.48C586.32,726.64,585.69,720.72,585.88,720.47z"/>
<circle id="Shape-1889" class="st8" cx="643.92" cy="648.18" r="26.76"/>
<circle id="Shape-1890" class="st7" cx="801.23" cy="606.02" r="26.76"/>
<path id="Shape-1891" class="st6" d="M647.2,482.96c-4.08-1.11-154.59-11.55-154.59-11.55s32.41,230.42-23.84,277.32
	c-2.12,1.77,191.01,40.54,191.01,40.54S721.09,503.05,647.2,482.96z"/>
<path id="Shape-1892" class="st7" d="M652.98,781.16l-3.91-0.83c-0.39-0.08-39.58-8.4-78.33-16.87c-22.77-4.97-40.94-9.02-54-12.04
	c-7.78-1.8-13.82-3.24-17.95-4.3c-7.01-1.79-9.12-2.33-9.83-5.02l-0.63-2.42l1.9-1.69c19.03-16.64,26.9-65.07,22.75-140.05
	c-2.24-37.16-6.42-74.17-12.52-110.89l-0.88-5.03l5.1,0.28c0.34,0.02,34.91,1.89,69.44,3.99c70.83,4.31,72.41,5.25,73.8,6.09
	c26.3,15.77,35.2,68.79,26.45,157.6c-6.42,65.14-20.37,126.68-20.5,127.29L652.98,781.16z M500.33,739.18
	c20.91,5.37,94.25,21.29,146.49,32.39c3.13-14.48,14.05-67.18,19.49-122.45c10.38-105.44-6.2-139.56-22.15-149.53
	c-7.56-1.55-82.52-6.05-134.87-8.91c2.38,14.63,9.16,59.16,11.79,106.76C525.1,669.99,518.12,717.6,500.33,739.18z"/>
<g id="Shape-1893" transform="translate(78.195 127.482)">
	<g id="Group_3197" transform="translate(6.841)">
		<path id="Path_1671" class="st7" d="M524.74,523.55c4.4-4.26,7.59-9.63,9.22-15.54c2.55-9.59-1.01-16.54-8.33-18.49
			c-6.79-1.81-11.69,1.03-18.08,9.83c-7.36,10.73-15.45,16.41-25.69,13.68c-11.31-3.02-17.21-14.63-13.44-28.74
			c1.98-7.43,5.14-12.36,7.84-15.1l6.96,4.62c-3.41,3.63-5.86,8.05-7.12,12.87c-2.64,9.91,2.27,15.26,7.23,16.58
			c6.78,1.81,11.3-1.71,17.85-10.7c8.01-11.01,15.6-15.68,26.27-12.84c11.2,2.99,18.68,13.87,14.11,30.99
			c-1.87,7-5.95,14.1-9.57,17.29L524.74,523.55z"/>
	</g>
	
		<rect id="Rectangle_4002" x="470.18" y="481.27" transform="matrix(0.2578 -0.9662 0.9662 0.2578 -118.804 819.8541)" class="st7" width="8.09" height="11.98"/>
	
		<rect id="Rectangle_4003" x="544.71" y="501.15" transform="matrix(0.2578 -0.9662 0.9662 0.2578 -82.6998 906.6192)" class="st7" width="8.09" height="11.98"/>
</g>
<path id="Shape-1894" class="st7" d="M513.8,483.59c4.27,2.82,5.45,8.57,2.63,12.84c-2.82,4.27-8.57,5.45-12.84,2.63
	c-0.05-0.04-0.11-0.07-0.16-0.11c-0.28-0.19,1.08-5.26,3.75-9.21C509.71,486.03,513.54,483.42,513.8,483.59z"/>
<path id="Shape-1895" class="st7" d="M656.51,506.3c-2.53,5.58-9.09,8.05-14.67,5.53c-5.58-2.53-8.05-9.09-5.53-14.67
	c0.1-0.21,0.2-0.42,0.31-0.62c0.18-0.37,6.45,0.35,11.55,2.87C652.99,501.79,656.68,505.95,656.51,506.3z"/>
<path id="Shape-1896" class="st8" d="M498.6,730.63c4.73-1.96,10.15,0.27,12.11,5s-0.27,10.15-5,12.11
	c-0.31,0.13-6.23-2.98-8.05-7.38C495.95,736.22,498.31,730.75,498.6,730.63z"/>
<path id="Shape-1897" class="st8" d="M637.55,775.54c-3.01-4.14-2.09-9.94,2.05-12.95c4.12-2.99,9.88-2.1,12.9,2
	c0.2,0.27-1.42,6.75-5.27,9.56C643.6,776.79,637.74,775.79,637.55,775.54z"/>
<circle id="Shape-1898" class="st8" cx="582.29" cy="707.38" r="26.76"/>
<circle id="Shape-1899" class="st7" cx="587.97" cy="539.52" r="26.76"/>
<g id="Coin-2" transform="translate(49.515 417.551)">
	<circle id="Shape-1900" class="st9" cx="588.62" cy="311.02" r="79.47"/>
	<circle id="Shape-1901" class="st10" cx="588.62" cy="312.21" r="69.09"/>
	<circle id="Shape-1902" class="st11" cx="588.62" cy="311.02" r="66.83"/>
	<g id="Shape-1903" transform="translate(137.342 36.41)">
		<g id="Group_3193" transform="translate(0 4.424)">
			<path id="Path_1667" class="st12" d="M438.79,301.17c5.95,1.49,12.18,1.35,18.06-0.39c9.49-2.9,13.5-9.6,11.29-16.85
				c-2.05-6.72-7.06-9.38-17.9-10.15c-13-0.58-22.1-4.44-25.19-14.57c-3.42-11.19,3.32-22.34,17.29-26.61
				c7.36-2.25,13.21-2.16,16.96-1.33l-0.25,8.35c-4.88-0.97-9.93-0.72-14.69,0.75c-9.81,2.99-11.75,10-10.25,14.9
				c2.05,6.72,7.43,8.69,18.52,9.5c13.59,0.98,21.56,4.96,24.78,15.51c3.38,11.09-1.9,23.19-18.85,28.36
				c-6.93,2.12-15.12,2.4-19.74,1.01L438.79,301.17z"/>
		</g>
		
			<rect id="Rectangle_3998" x="435.24" y="231.73" transform="matrix(0.9564 -0.2921 0.2921 0.9564 -50.2814 138.6912)" class="st12" width="8.08" height="11.97"/>
		
			<rect id="Rectangle_3999" x="457.76" y="305.5" transform="matrix(0.9564 -0.2921 0.2921 0.9564 -70.8493 148.4872)" class="st12" width="8.08" height="11.97"/>
	</g>
</g>
<g id="Coin-3" transform="translate(49.515 417.551)">
	<circle id="Shape-1904" class="st9" cx="506.03" cy="310.92" r="79.47"/>
	<circle id="Shape-1905" class="st10" cx="506.03" cy="312.12" r="69.09"/>
	<circle id="Shape-1906" class="st11" cx="506.03" cy="310.92" r="66.83"/>
	<g id="Shape-1907" transform="translate(38.244 50.14)">
		<g id="Group_3195">
			<path id="Path_1668" class="st12" d="M434.15,256.92c0.01,6.13,1.65,12.15,4.77,17.43c5.12,8.5,12.6,10.76,19.09,6.85
				c6.01-3.62,7.38-9.13,5.49-19.83c-2.6-12.75-1.07-22.52,8-27.98c10.02-6.04,22.48-2.21,30.01,10.3
				c3.97,6.59,5.31,12.28,5.42,16.13l-8.16,1.79c-0.24-4.97-1.72-9.81-4.3-14.06c-5.29-8.78-12.55-8.96-16.95-6.32
				c-6.02,3.62-6.62,9.32-4.71,20.27c2.35,13.42,0.44,22.12-9.02,27.81c-9.93,5.98-22.95,3.8-32.1-11.38
				c-3.73-6.21-6.01-14.08-5.78-18.9L434.15,256.92z"/>
		</g>
		
			<rect id="Rectangle_4000" x="494.11" y="236.84" transform="matrix(0.8567 -0.5158 0.5158 0.8567 -52.5892 292.4785)" class="st12" width="11.98" height="8.09"/>
		
			<rect id="Rectangle_4001" x="428.03" y="276.63" transform="matrix(0.8567 -0.5158 0.5158 0.8567 -82.5825 264.096)" class="st12" width="11.98" height="8.09"/>
	</g>
</g>
<g id="Coin-4" transform="translate(194.749 417.551)">
	<circle id="Shape-1908" class="st9" cx="586.1" cy="311.02" r="79.47"/>
	<circle id="Shape-1909" class="st10" cx="586.1" cy="312.21" r="69.09"/>
	<circle id="Shape-1910" class="st11" cx="586.1" cy="311.02" r="66.83"/>
	<g id="Shape-1911" transform="translate(118.752 58.666)">
		<g id="Group_3199" transform="translate(5.517)">
			<path id="Path_1676" class="st12" d="M434.43,232.69c-3.03,5.33-4.58,11.37-4.49,17.5c0.23,9.92,5.61,15.59,13.19,15.41
				c7.02-0.17,10.94-4.27,14.6-14.5c4.06-12.36,10.23-20.09,20.82-20.34c11.7-0.28,20.62,9.22,20.96,23.81
				c0.18,7.69-1.47,13.3-3.29,16.69l-7.98-2.49c2.25-4.44,3.36-9.37,3.23-14.35c-0.24-10.25-6.46-14.01-11.59-13.89
				c-7.02,0.17-10.37,4.82-14.14,15.27c-4.6,12.82-10.58,19.43-21.62,19.69c-11.59,0.27-21.82-8.07-22.24-25.79
				c-0.17-7.24,1.76-15.21,4.34-19.28L434.43,232.69z"/>
		</g>
		
			<rect id="Rectangle_4004" x="499.18" y="247.4" transform="matrix(0.9997 -0.0235 0.0235 0.9997 -5.7754 11.9537)" class="st12" width="11.98" height="8.09"/>
		
			<rect id="Rectangle_4005" x="422.07" y="249.22" transform="matrix(0.9997 -0.0235 0.0235 0.9997 -5.8395 10.1402)" class="st12" width="11.98" height="8.09"/>
	</g>
</g>
<g id="Coin-5" transform="translate(194.749 417.551)">
	<circle id="Shape-1912" class="st9" cx="503.51" cy="310.92" r="79.47"/>
	<circle id="Shape-1913" class="st10" cx="503.51" cy="312.12" r="69.09"/>
	<circle id="Shape-1914" class="st11" cx="503.51" cy="310.92" r="66.83"/>
	<g id="Shape-1915" transform="translate(54.819 35.366)">
		<g id="Group_3201" transform="translate(0 6.706)">
			<path id="Path_1677" class="st12" d="M426.05,293.71c5.04,3.49,10.93,5.56,17.05,6c9.9,0.63,16.02-4.23,16.5-11.79
				c0.45-7.01-3.3-11.27-13.18-15.81c-11.96-5.12-19.12-11.94-18.45-22.51c0.74-11.68,10.98-19.74,25.55-18.81
				c7.68,0.49,13.12,2.62,16.34,4.73l-3.17,7.73c-4.23-2.63-9.04-4.17-14.01-4.47c-10.23-0.65-14.52,5.22-14.84,10.34
				c-0.45,7.01,3.9,10.75,13.99,15.41c12.37,5.7,18.43,12.23,17.73,23.24c-0.74,11.57-9.94,21.04-27.63,19.91
				c-7.23-0.46-14.99-3.08-18.83-6L426.05,293.71z"/>
		</g>
		
			<rect id="Rectangle_4006" x="444.43" y="233.02" transform="matrix(0.0636 -0.998 0.998 0.0636 185.195 671.5)" class="st12" width="11.98" height="8.09"/>
		
			<rect id="Rectangle_4007" x="439.52" y="310" transform="matrix(0.0636 -0.998 0.998 0.0636 103.7823 738.6896)" class="st12" width="11.98" height="8.09"/>
	</g>
</g>
<g id="Glass-2" transform="translate(36.309 82.519)">
	<path id="Shape-1916" class="st13" d="M781.3,313.73v-58.79H499.7v58.88c-22.45,1.57-40.41,23.32-40.41,49.69v363.86
		c0,8.95,6.32,16.27,14.05,16.27h336.79c7.73,0,14.05-7.32,14.05-16.27V363.52C824.19,336.18,804.9,313.81,781.3,313.73z"/>
	<path id="Shape-1917" class="st14" d="M790.75,303.19v-48.25H464.73v48.35c-26.24,1.67-46.7,23.39-46.78,49.69v374.4
		c0.02,8.98,7.29,16.24,16.27,16.27h389.93c8.98-0.02,16.25-7.29,16.27-16.27v-374.4C840.33,325.57,818.16,303.35,790.75,303.19z"/>
</g>
<g id="Coins" transform="translate(155.225 745.341)">
	<g id="Coin-6" transform="translate(5.776 75.093)" class="st15">
		<path id="Path_1548" class="st16" d="M-62.35,14.85c-63.26,0-87.96-18.81-87.96-27.44l0,0c0,0-2.61-15.69,4.93-15.69
			c0,0,48.89,16.12,81.35,16.12c49.26,0,84.27-16.12,84.27-16.12c7.54,0,4.97,7.06,4.97,15.69l0,0
			C25.21-3.96,0.68,14.85-62.35,14.85z"/>
		<path id="Path_1549" class="st9" d="M25.78-23.14c0-12.92-39.42-23.4-88.05-23.4s-88.05,10.48-88.05,23.4s39.45,26.12,88.08,26.12
			S25.78-10.22,25.78-23.14z"/>
		<path id="Path_1550" class="st10" d="M18.17-23.93c0-10.51-35.06-19.04-78.32-19.04s-78.32,8.52-78.32,19.04
			s35.08,21.25,78.34,21.25S18.17-13.42,18.17-23.93z"/>
		<path id="Path_1551" class="st11" d="M16.34-23.06c0-10.08-33.82-18.26-75.55-18.26s-75.55,8.17-75.55,18.26
			s33.85,20.38,75.57,20.38S16.34-12.97,16.34-23.06z"/>
		<path id="Path_1552" class="st12" d="M-37.77-15.82c3.17-1.46,6.2-3.68,7.15-6.16c1.41-3.67-2.76-6.1-9.98-6.52
			c-6.69-0.39-11.09,0.87-16.25,4.41c-5.89,4.29-13.02,6.74-23.12,6.16c-11.16-0.65-18.07-4.71-15.99-10.11
			c1.16-2.63,3.25-4.74,5.87-5.94l7.16,1.43c-1.62,0.83-4.46,2.56-5.43,5.08c-1.46,3.79,3.83,5.57,8.72,5.85
			c6.69,0.39,10.64-1.11,15.94-4.72c6.49-4.42,13.25-6.48,23.77-5.87c11.05,0.64,19.39,4.37,16.87,10.92
			c-1.03,2.68-4.18,5.49-7.3,6.82L-37.77-15.82z"/>
		<path id="Path_1553" class="st12" d="M-90.34-28.05l-1.15,2.99l-11.42-0.66l1.15-2.99L-90.34-28.05z"/>
		<path id="Path_1554" class="st12" d="M-16.81-23.8l-1.15,2.99l-11.42-0.66l1.15-2.99L-16.81-23.8z"/>
	</g>
	<g id="Coin-7" transform="translate(28.057 56.938)">
		<path id="Path_1555" class="st16" d="M-62.73,15.17c-63.26,0-87.96-18.81-87.96-27.44l0,0c0,0-2.61-15.69,4.93-15.69
			c0,0,48.89,16.12,81.35,16.12c49.26,0,84.27-16.12,84.27-16.12c7.53,0,4.97,7.06,4.97,15.69l0,0C24.82-3.65,0.3,15.17-62.73,15.17
			z"/>
		<path id="Path_1556" class="st9" d="M25.4-22.83c0-12.92-39.42-23.4-88.05-23.4s-88.05,10.48-88.05,23.4s39.45,26.12,88.08,26.12
			S25.4-9.91,25.4-22.83z"/>
		<path id="Path_1557" class="st10" d="M17.78-23.62c0-10.51-35.06-19.04-78.32-19.04s-78.32,8.52-78.32,19.04
			s35.08,21.25,78.34,21.25S17.78-13.1,17.78-23.62z"/>
		<path id="Path_1558" class="st11" d="M15.95-22.74C15.95-32.82-17.87-41-59.59-41s-75.55,8.17-75.55,18.26S-101.3-2.37-59.58-2.37
			S15.95-12.66,15.95-22.74z"/>
		<path id="Path_1559" class="st12" d="M-38.15-15.5c3.17-1.46,6.2-3.68,7.15-6.16c1.41-3.67-2.76-6.1-9.98-6.52
			c-6.69-0.39-11.09,0.87-16.25,4.41c-5.89,4.29-13.02,6.74-23.12,6.16c-11.16-0.65-18.07-4.71-15.99-10.11
			c1.16-2.63,3.25-4.74,5.87-5.94l7.16,1.43c-1.62,0.83-4.46,2.56-5.43,5.08c-1.46,3.79,3.83,5.57,8.72,5.85
			c6.69,0.39,10.64-1.11,15.94-4.72c6.49-4.42,13.25-6.48,23.77-5.87c11.05,0.64,19.39,4.37,16.87,10.92
			c-1.03,2.68-4.18,5.49-7.3,6.82L-38.15-15.5z"/>
		<path id="Path_1560" class="st12" d="M-90.73-27.74l-1.15,2.99l-11.42-0.66l1.15-2.99L-90.73-27.74z"/>
		<path id="Path_1561" class="st12" d="M-17.2-23.48l-1.15,2.99l-11.42-0.66l1.15-2.99L-17.2-23.48z"/>
	</g>
	<g id="Coin-8" transform="translate(0 43.735)">
		<path id="Path_1562" class="st16" d="M-62.25,15.39c-63.26,0-87.96-18.81-87.96-27.44l0,0c0,0-2.61-15.69,4.93-15.69
			c0,0,48.89,16.12,81.35,16.12c49.26,0,84.27-16.12,84.27-16.12c7.53,0,4.97,7.06,4.97,15.69l0,0
			C25.31-3.42,0.78,15.39-62.25,15.39z"/>
		<path id="Path_1563" class="st9" d="M25.88-22.6c0-12.92-39.42-23.4-88.05-23.4s-88.05,10.48-88.05,23.4s39.45,26.12,88.08,26.12
			S25.88-9.68,25.88-22.6z"/>
		<path id="Path_1564" class="st10" d="M18.27-23.39c0-10.51-35.06-19.04-78.32-19.04s-78.32,8.52-78.32,19.04
			s35.08,21.25,78.34,21.25S18.27-12.87,18.27-23.39z"/>
		<path id="Path_1565" class="st11" d="M16.44-22.51c0-10.08-33.82-18.26-75.55-18.26s-75.55,8.17-75.55,18.26
			s33.85,20.38,75.57,20.38S16.44-12.43,16.44-22.51z"/>
		<path id="Path_1566" class="st12" d="M-37.67-15.27c3.17-1.46,6.2-3.68,7.15-6.16c1.41-3.67-2.76-6.1-9.98-6.52
			c-6.69-0.39-11.09,0.87-16.25,4.41c-5.89,4.29-13.02,6.74-23.12,6.16c-11.16-0.65-18.07-4.71-15.99-10.11
			c1.16-2.63,3.25-4.74,5.87-5.94l7.16,1.43c-1.62,0.83-4.46,2.56-5.43,5.08c-1.46,3.79,3.83,5.57,8.72,5.85
			c6.69,0.39,10.64-1.11,15.94-4.72c6.49-4.42,13.25-6.48,23.77-5.87c11.05,0.64,19.39,4.37,16.87,10.92
			c-1.03,2.68-4.18,5.49-7.3,6.82L-37.67-15.27z"/>
		<path id="Path_1567" class="st12" d="M-90.24-27.51l-1.15,2.99l-11.42-0.66l1.15-2.99L-90.24-27.51z"/>
		<path id="Path_1568" class="st12" d="M-16.71-23.25l-1.15,2.99l-11.42-0.66l1.15-2.99L-16.71-23.25z"/>
	</g>
	<g id="Coin-9" transform="translate(15.679 24.756)">
		<path id="Path_1569" class="st16" d="M-62.52,15.72c-63.26,0-87.96-18.81-87.96-27.44l0,0c0,0-2.61-15.69,4.93-15.69
			c0,0,48.89,16.12,81.35,16.12c49.26,0,84.27-16.12,84.27-16.12c7.54,0,4.97,7.06,4.97,15.69l0,0
			C25.04-3.09,0.51,15.72-62.52,15.72z"/>
		<path id="Path_1570" class="st9" d="M25.61-22.27c0-12.92-39.42-23.4-88.05-23.4s-88.05,10.48-88.05,23.4s39.45,26.12,88.08,26.12
			S25.61-9.35,25.61-22.27z"/>
		<path id="Path_1571" class="st10" d="M17.99-23.06c0-10.51-35.06-19.04-78.32-19.04s-78.32,8.52-78.32,19.04
			S-103.56-1.81-60.3-1.81S17.99-12.54,17.99-23.06z"/>
		<path id="Path_1572" class="st11" d="M16.17-22.18c0-10.08-33.82-18.26-75.55-18.26s-75.55,8.17-75.55,18.26
			s33.85,20.38,75.57,20.38S16.17-12.1,16.17-22.18z"/>
		<path id="Path_1573" class="st12" d="M-37.94-14.94c3.17-1.46,6.2-3.68,7.15-6.16c1.41-3.67-2.76-6.1-9.98-6.52
			c-6.69-0.39-11.09,0.87-16.25,4.41c-5.89,4.29-13.02,6.74-23.12,6.16c-11.16-0.65-18.07-4.71-15.99-10.11
			c1.16-2.63,3.25-4.74,5.87-5.94l7.16,1.43c-1.62,0.83-4.46,2.56-5.43,5.08c-1.46,3.79,3.83,5.57,8.72,5.85
			c6.69,0.39,10.64-1.11,15.94-4.72c6.49-4.42,13.25-6.48,23.77-5.87c11.05,0.64,19.39,4.37,16.87,10.92
			c-1.03,2.68-4.18,5.49-7.3,6.82L-37.94-14.94z"/>
		<path id="Path_1574" class="st12" d="M-90.51-27.18l-1.15,2.99l-11.42-0.66l1.15-2.99L-90.51-27.18z"/>
		<path id="Path_1575" class="st12" d="M-16.99-22.92l-1.15,2.99l-11.42-0.66l1.15-2.99L-16.99-22.92z"/>
	</g>
	<g id="Coin-10" transform="translate(18.154)">
		<path id="Path_1576" class="st16" d="M-62.56,16.15c-63.26,0-87.96-18.81-87.96-27.44l0,0c0,0-2.61-15.69,4.93-15.69
			c0,0,48.89,16.12,81.35,16.12c49.26,0,84.27-16.12,84.27-16.12c7.54,0,4.97,7.06,4.97,15.69l0,0C25-2.66,0.47,16.15-62.56,16.15z"
			/>
		<path id="Path_1577" class="st9" d="M25.57-21.84c0-12.92-39.42-23.4-88.05-23.4s-88.05,10.48-88.05,23.4s39.45,26.12,88.08,26.12
			S25.57-8.92,25.57-21.84z"/>
		<path id="Path_1578" class="st10" d="M17.95-22.63c0-10.51-35.06-19.04-78.32-19.04s-78.32,8.52-78.32,19.04
			S-103.6-1.38-60.35-1.38S17.95-12.11,17.95-22.63z"/>
		<path id="Path_1579" class="st11" d="M16.13-21.75c0-10.08-33.82-18.26-75.55-18.26s-75.55,8.17-75.55,18.26
			s33.85,20.38,75.57,20.38S16.13-11.67,16.13-21.75z"/>
		<path id="Path_1580" class="st12" d="M-37.98-14.51c3.17-1.46,6.2-3.68,7.15-6.16c1.41-3.67-2.76-6.1-9.98-6.52
			c-6.69-0.39-11.09,0.87-16.25,4.41c-5.89,4.29-13.02,6.74-23.12,6.16c-11.16-0.65-18.07-4.71-15.99-10.11
			c1.16-2.63,3.25-4.74,5.87-5.94l7.16,1.43c-1.62,0.83-4.46,2.56-5.43,5.08c-1.46,3.79,3.83,5.57,8.72,5.85
			c6.69,0.39,10.64-1.11,15.94-4.72c6.49-4.42,13.25-6.48,23.77-5.87c11.05,0.64,19.39,4.37,16.87,10.92
			c-1.03,2.68-4.18,5.49-7.3,6.82L-37.98-14.51z"/>
		<path id="Path_1581" class="st12" d="M-90.55-26.75l-1.15,2.99l-11.42-0.66l1.15-2.99L-90.55-26.75z"/>
		<path id="Path_1582" class="st12" d="M-17.03-22.49l-1.15,2.99l-11.42-0.66l1.15-2.99L-17.03-22.49z"/>
	</g>
</g>
<g id="Coins-2" transform="translate(322.739 633.94)">
	<g id="Coin-11" transform="translate(78.393 188.144)">
		<path id="Path_1583" class="st16" d="M-66.51,14.82c-63.26,0-87.96-18.81-87.96-27.44l0,0c0,0-2.61-15.69,4.93-15.69
			c0,0,48.89,16.12,81.35,16.12c49.26,0,84.27-16.12,84.27-16.12c7.54,0,4.97,7.06,4.97,15.69l0,0
			C21.04-3.99-3.48,14.82-66.51,14.82z"/>
		<path id="Path_1584" class="st9" d="M21.62-23.17c0-12.92-39.42-23.4-88.05-23.4s-88.05,10.48-88.05,23.4s39.45,26.12,88.08,26.12
			S21.62-10.25,21.62-23.17z"/>
		<path id="Path_1585" class="st10" d="M14-23.96C14-34.47-21.06-43-64.32-43s-78.32,8.52-78.32,19.04S-107.55-2.71-64.3-2.71
			S14-13.45,14-23.96z"/>
		<path id="Path_1586" class="st11" d="M12.17-23.09c0-10.08-33.82-18.26-75.55-18.26s-75.55,8.17-75.55,18.26
			s33.85,20.38,75.57,20.38S12.17-13,12.17-23.09z"/>
		<path id="Path_1587" class="st12" d="M-41.93-15.84c3.17-1.46,6.2-3.68,7.15-6.16c1.41-3.67-2.76-6.1-9.98-6.52
			c-6.69-0.39-11.09,0.87-16.25,4.41c-5.89,4.29-13.02,6.74-23.12,6.16c-11.16-0.65-18.07-4.71-15.99-10.11
			c1.16-2.63,3.25-4.74,5.87-5.94l7.16,1.43c-1.62,0.83-4.46,2.56-5.43,5.08c-1.46,3.79,3.83,5.57,8.72,5.85
			c6.69,0.39,10.64-1.11,15.94-4.72c6.49-4.42,13.25-6.48,23.77-5.87c11.05,0.64,19.39,4.37,16.87,10.92
			c-1.03,2.68-4.18,5.49-7.3,6.82L-41.93-15.84z"/>
		<path id="Path_1588" class="st12" d="M-94.51-28.08l-1.15,2.99l-11.42-0.66l1.15-2.99L-94.51-28.08z"/>
		<path id="Path_1589" class="st12" d="M-20.98-23.83l-1.15,2.99l-11.42-0.66l1.15-2.99L-20.98-23.83z"/>
	</g>
	<g id="Coin-12" transform="translate(42.085 169.99)">
		<path id="Path_1590" class="st16" d="M-65.88,15.14c-63.26,0-87.96-18.81-87.96-27.44l0,0c0,0-2.61-15.69,4.93-15.69
			c0,0,48.89,16.12,81.35,16.12c49.26,0,84.27-16.12,84.27-16.12c7.54,0,4.97,7.06,4.97,15.69l0,0
			C21.67-3.67-2.85,15.14-65.88,15.14z"/>
		<path id="Path_1591" class="st9" d="M22.25-22.86c0-12.92-39.42-23.4-88.05-23.4s-88.05,10.48-88.05,23.4s39.45,26.12,88.08,26.12
			S22.25-9.93,22.25-22.86z"/>
		<path id="Path_1592" class="st10" d="M14.63-23.64c0-10.51-35.06-19.04-78.32-19.04s-78.32,8.52-78.32,19.04
			s35.08,21.25,78.34,21.25S14.63-13.13,14.63-23.64z"/>
		<path id="Path_1593" class="st11" d="M12.8-22.77c0-10.08-33.82-18.26-75.55-18.26s-75.55,8.17-75.55,18.26
			s33.85,20.38,75.57,20.38S12.8-12.69,12.8-22.77z"/>
		<path id="Path_1594" class="st12" d="M-41.3-15.53c3.17-1.46,6.2-3.68,7.15-6.16c1.41-3.67-2.76-6.1-9.98-6.52
			c-6.69-0.39-11.09,0.87-16.25,4.41c-5.89,4.29-13.02,6.74-23.12,6.16c-11.16-0.65-18.07-4.71-15.99-10.11
			c1.16-2.63,3.25-4.74,5.87-5.94l7.16,1.43c-1.62,0.83-4.46,2.56-5.43,5.08c-1.46,3.79,3.83,5.57,8.72,5.85
			c6.69,0.39,10.64-1.11,15.94-4.72c6.49-4.42,13.25-6.48,23.77-5.87C-32.42-31.27-24.08-27.55-26.6-21
			c-1.03,2.68-4.18,5.49-7.3,6.82L-41.3-15.53z"/>
		<path id="Path_1595" class="st12" d="M-93.88-27.77l-1.15,2.99l-11.42-0.66l1.15-2.99L-93.88-27.77z"/>
		<path id="Path_1596" class="st12" d="M-20.35-23.51l-1.15,2.99l-11.42-0.66l1.15-2.99L-20.35-23.51z"/>
	</g>
	<g id="Coin-13" transform="translate(42.91 151.01)">
		<path id="Path_1597" class="st16" d="M-65.9,15.47c-63.26,0-87.96-18.81-87.96-27.44l0,0c0,0-2.61-15.69,4.93-15.69
			c0,0,48.89,16.12,81.35,16.12c49.26,0,84.27-16.12,84.27-16.12c7.54,0,4.97,7.06,4.97,15.69l0,0C21.66-3.34-2.87,15.47-65.9,15.47
			z"/>
		<path id="Path_1598" class="st9" d="M22.23-22.53c0-12.92-39.42-23.4-88.05-23.4s-88.05,10.48-88.05,23.4S-114.43,3.59-65.8,3.59
			S22.23-9.6,22.23-22.53z"/>
		<path id="Path_1599" class="st10" d="M14.61-23.32c0-10.51-35.06-19.04-78.32-19.04s-78.32,8.52-78.32,19.04
			s35.08,21.25,78.34,21.25S14.61-12.8,14.61-23.32z"/>
		<path id="Path_1600" class="st11" d="M12.79-22.44c0-10.08-33.82-18.26-75.55-18.26s-75.55,8.17-75.55,18.26
			s33.85,20.38,75.57,20.38S12.79-12.36,12.79-22.44z"/>
		<path id="Path_1601" class="st12" d="M-41.32-15.2c3.17-1.46,6.2-3.68,7.15-6.16c1.41-3.67-2.76-6.1-9.98-6.52
			c-6.69-0.39-11.09,0.87-16.25,4.41c-5.89,4.29-13.02,6.74-23.12,6.16c-11.16-0.65-18.07-4.71-15.99-10.11
			c1.16-2.63,3.25-4.74,5.87-5.94l7.16,1.43c-1.62,0.83-4.46,2.56-5.43,5.08c-1.46,3.79,3.83,5.57,8.72,5.85
			c6.69,0.39,10.64-1.11,15.94-4.72c6.49-4.42,13.25-6.48,23.77-5.87c11.05,0.64,19.39,4.37,16.87,10.92
			c-1.03,2.68-4.18,5.49-7.3,6.82L-41.32-15.2z"/>
		<path id="Path_1602" class="st12" d="M-93.89-27.44l-1.15,2.99l-11.42-0.66l1.15-2.99L-93.89-27.44z"/>
		<path id="Path_1603" class="st12" d="M-20.37-23.18l-1.15,2.99l-11.42-0.66l1.15-2.99L-20.37-23.18z"/>
	</g>
	<g id="Coin-14" transform="translate(45.386 132.856)">
		<path id="Path_1604" class="st16" d="M-65.94,15.78c-63.26,0-87.96-18.81-87.96-27.44l0,0c0,0-2.61-15.69,4.93-15.69
			c0,0,48.89,16.12,81.35,16.12c49.26,0,84.27-16.12,84.27-16.12c7.54,0,4.97,7.06,4.97,15.69l0,0
			C21.62-3.03-2.91,15.78-65.94,15.78z"/>
		<path id="Path_1605" class="st9" d="M22.19-22.21c0-12.92-39.42-23.4-88.05-23.4s-88.05,10.48-88.05,23.4s39.45,26.12,88.08,26.12
			S22.19-9.29,22.19-22.21z"/>
		<path id="Path_1606" class="st10" d="M14.57-23c0-10.51-35.06-19.04-78.32-19.04s-78.32,8.52-78.32,19.04s35.08,21.25,78.34,21.25
			S14.57-12.49,14.57-23z"/>
		<path id="Path_1607" class="st11" d="M12.75-22.13c0-10.08-33.82-18.26-75.55-18.26s-75.55,8.17-75.55,18.26
			s33.85,20.38,75.57,20.38S12.75-12.04,12.75-22.13z"/>
		<path id="Path_1609" class="st12" d="M-93.93-27.12l-1.15,2.99l-11.42-0.66l1.15-2.99L-93.93-27.12z"/>
		<path id="Path_1610" class="st12" d="M-20.41-22.87l-1.15,2.99l-11.42-0.66l1.15-2.99L-20.41-22.87z"/>
	</g>
	<g id="Coin-15" transform="translate(75.093 119.653)">
		<path id="Path_1611" class="st16" d="M-66.46,16.01c-63.26,0-87.96-18.81-87.96-27.44l0,0c0,0-2.61-15.69,4.93-15.69
			c0,0,48.89,16.12,81.35,16.12c49.26,0,84.27-16.12,84.27-16.12c7.54,0,4.97,7.06,4.97,15.69l0,0C21.1-2.8-3.43,16.01-66.46,16.01z
			"/>
		<path id="Path_1612" class="st9" d="M21.67-21.99c0-12.92-39.42-23.4-88.05-23.4s-88.05,10.48-88.05,23.4s39.45,26.12,88.08,26.12
			S21.67-9.06,21.67-21.99z"/>
		<path id="Path_1613" class="st10" d="M14.06-22.77c0-10.51-35.06-19.04-78.32-19.04s-78.32,8.52-78.32,19.04
			S-107.5-1.52-64.24-1.52S14.06-12.26,14.06-22.77z"/>
		<path id="Path_1614" class="st11" d="M12.23-21.9c0-10.08-33.82-18.26-75.55-18.26s-75.55,8.17-75.55,18.26
			S-105.02-1.52-63.3-1.52S12.23-11.81,12.23-21.9z"/>
		<path id="Path_1615" class="st12" d="M-41.88-14.66c3.17-1.46,6.2-3.68,7.15-6.16c1.41-3.67-2.76-6.1-9.98-6.52
			c-6.69-0.39-11.09,0.87-16.25,4.41c-5.89,4.29-13.02,6.74-23.12,6.16c-11.16-0.65-18.06-4.71-15.99-10.11
			c1.16-2.63,3.25-4.74,5.87-5.94l7.16,1.43c-1.62,0.83-4.46,2.56-5.43,5.08c-1.46,3.79,3.83,5.57,8.72,5.85
			c6.69,0.39,10.64-1.11,15.94-4.72c6.49-4.42,13.25-6.48,23.77-5.87c11.05,0.64,19.39,4.37,16.87,10.92
			c-1.03,2.68-4.18,5.49-7.3,6.82L-41.88-14.66z"/>
		<path id="Path_1616" class="st12" d="M-94.45-26.89l-1.15,2.99l-11.42-0.66l1.15-2.99L-94.45-26.89z"/>
		<path id="Path_1617" class="st12" d="M-20.92-22.64l-1.15,2.99l-11.42-0.66l1.15-2.99L-20.92-22.64z"/>
	</g>
	<g id="Coin-16" transform="translate(31.357 94.072)">
		<path id="Path_1618" class="st16" d="M-65.7,16.45c-63.26,0-87.96-18.81-87.96-27.44l0,0c0,0-2.61-15.69,4.93-15.69
			c0,0,48.89,16.12,81.35,16.12c49.26,0,84.27-16.12,84.27-16.12c7.54,0,4.97,7.06,4.97,15.69l0,0C21.86-2.36-2.67,16.45-65.7,16.45
			z"/>
		<path id="Path_1619" class="st9" d="M22.43-21.54c0-12.92-39.42-23.4-88.05-23.4s-88.05,10.48-88.05,23.4S-114.23,4.58-65.6,4.58
			S22.43-8.62,22.43-21.54z"/>
		<path id="Path_1620" class="st10" d="M14.82-22.33c0-10.51-35.06-19.04-78.32-19.04s-78.32,8.52-78.32,19.04
			s35.08,21.25,78.34,21.25S14.82-11.81,14.82-22.33z"/>
		<path id="Path_1621" class="st11" d="M12.99-21.45c0-10.08-33.82-18.26-75.55-18.26s-75.55,8.17-75.55,18.26
			s33.85,20.38,75.57,20.38S12.99-11.37,12.99-21.45z"/>
		<path id="Path_1622" class="st12" d="M-41.12-14.21c3.17-1.46,6.2-3.68,7.15-6.16c1.41-3.67-2.76-6.1-9.98-6.52
			c-6.69-0.39-11.09,0.87-16.25,4.41c-5.89,4.29-13.02,6.74-23.12,6.16c-11.16-0.65-18.07-4.71-15.99-10.11
			c1.16-2.63,3.25-4.74,5.87-5.94l7.16,1.43c-1.62,0.83-4.46,2.56-5.43,5.08c-1.46,3.79,3.83,5.57,8.72,5.85
			c6.69,0.39,10.64-1.11,15.94-4.72c6.49-4.42,13.25-6.48,23.77-5.87c11.05,0.64,19.39,4.37,16.87,10.92
			c-1.03,2.68-4.18,5.49-7.3,6.82L-41.12-14.21z"/>
		<path id="Path_1623" class="st12" d="M-93.69-26.45l-1.15,2.99l-11.42-0.66l1.15-2.99L-93.69-26.45z"/>
		<path id="Path_1624" class="st12" d="M-20.17-22.19l-1.15,2.99l-11.42-0.66l1.15-2.99L-20.17-22.19z"/>
	</g>
	<g id="Coin-17" transform="translate(0 78.393)">
		<path id="Path_1625" class="st16" d="M-65.15,16.73c-63.26,0-87.96-18.81-87.96-27.44l0,0c0,0-2.61-15.69,4.93-15.69
			c0,0,48.89,16.12,81.35,16.12c49.26,0,84.27-16.12,84.27-16.12c7.54,0,4.97,7.06,4.97,15.69l0,0C22.4-2.08-2.12,16.73-65.15,16.73
			z"/>
		<path id="Path_1626" class="st9" d="M22.98-21.27c0-12.92-39.42-23.4-88.05-23.4s-88.05,10.48-88.05,23.4s39.45,26.12,88.08,26.12
			S22.98-8.34,22.98-21.27z"/>
		<path id="Path_1627" class="st10" d="M15.36-22.06c0-10.51-35.06-19.04-78.32-19.04s-78.32,8.52-78.32,19.04
			S-106.19-0.8-62.94-0.8S15.36-11.54,15.36-22.06z"/>
		<path id="Path_1628" class="st11" d="M13.53-21.18c0-10.08-33.82-18.26-75.55-18.26s-75.55,8.17-75.55,18.26S-103.72-0.8-62-0.8
			S13.53-11.1,13.53-21.18z"/>
		<path id="Path_1629" class="st12" d="M-40.57-13.94c3.17-1.46,6.2-3.68,7.15-6.16c1.41-3.67-2.76-6.1-9.98-6.52
			C-50.1-27-54.5-25.74-59.66-22.21c-5.89,4.29-13.02,6.74-23.12,6.16c-11.16-0.65-18.07-4.71-15.99-10.11
			c1.16-2.63,3.25-4.74,5.87-5.94l7.16,1.43c-1.62,0.83-4.46,2.56-5.43,5.08c-1.46,3.79,3.83,5.57,8.72,5.85
			c6.69,0.39,10.64-1.11,15.94-4.72c6.49-4.42,13.25-6.48,23.77-5.87c11.05,0.64,19.39,4.37,16.87,10.92
			c-1.03,2.68-4.18,5.49-7.3,6.82L-40.57-13.94z"/>
		<path id="Path_1630" class="st12" d="M-93.15-26.18l-1.15,2.99l-11.42-0.66l1.15-2.99L-93.15-26.18z"/>
		<path id="Path_1631" class="st12" d="M-19.62-21.92l-1.15,2.99l-11.42-0.66l1.15-2.99L-19.62-21.92z"/>
	</g>
	<g id="Coin-18" transform="translate(56.938 61.889)">
		<path id="Path_1632" class="st16" d="M-66.14,17.01c-63.26,0-87.96-18.81-87.96-27.44l0,0c0,0-2.61-15.69,4.93-15.69
			c0,0,48.89,16.12,81.35,16.12c49.26,0,84.27-16.12,84.27-16.12c7.54,0,4.97,7.06,4.97,15.69l0,0C21.42-1.8-3.11,17.01-66.14,17.01
			z"/>
		<path id="Path_1633" class="st9" d="M21.99-20.98c0-12.92-39.42-23.4-88.05-23.4s-88.05,10.48-88.05,23.4s39.45,26.12,88.08,26.12
			S21.99-8.06,21.99-20.98z"/>
		<path id="Path_1634" class="st10" d="M14.37-21.77c0-10.51-35.06-19.04-78.32-19.04s-78.32,8.52-78.32,19.04
			s35.08,21.25,78.34,21.25S14.37-11.25,14.37-21.77z"/>
		<path id="Path_1635" class="st11" d="M12.55-20.89c0-10.08-33.82-18.26-75.55-18.26s-75.55,8.17-75.55,18.26
			s33.85,20.38,75.57,20.38S12.55-10.81,12.55-20.89z"/>
		<path id="Path_1636" class="st12" d="M-41.56-13.66c3.17-1.46,6.2-3.68,7.15-6.16c1.41-3.67-2.76-6.1-9.98-6.52
			c-6.69-0.39-11.09,0.87-16.25,4.41c-5.89,4.29-13.02,6.74-23.12,6.16c-11.16-0.65-18.07-4.71-15.99-10.11
			c1.16-2.63,3.25-4.74,5.87-5.94l7.16,1.43c-1.62,0.83-4.46,2.56-5.43,5.08c-1.46,3.79,3.83,5.57,8.72,5.85
			c6.69,0.39,10.64-1.11,15.94-4.72c6.49-4.42,13.25-6.48,23.77-5.87c11.05,0.64,19.39,4.37,16.87,10.92
			c-1.03,2.68-4.18,5.49-7.3,6.82L-41.56-13.66z"/>
		<path id="Path_1637" class="st12" d="M-94.13-25.89l-1.15,2.99l-11.42-0.66l1.15-2.99L-94.13-25.89z"/>
		<path id="Path_1638" class="st12" d="M-20.61-21.64l-1.15,2.99l-11.42-0.66l1.15-2.99L-20.61-21.64z"/>
	</g>
	<g id="Coin-19" transform="translate(23.931 47.861)">
		<path id="Path_1639" class="st16" d="M-65.57,17.26c-63.26,0-87.96-18.81-87.96-27.44l0,0c0,0-2.61-15.69,4.93-15.69
			c0,0,48.89,16.12,81.35,16.12c49.26,0,84.27-16.12,84.27-16.12c7.54,0,4.97,7.06,4.97,15.69l0,0
			C21.99-1.56-2.54,17.26-65.57,17.26z"/>
		<path id="Path_1640" class="st9" d="M22.56-20.74c0-12.92-39.42-23.4-88.05-23.4s-88.05,10.48-88.05,23.4S-114.1,5.38-65.47,5.38
			S22.56-7.81,22.56-20.74z"/>
		<path id="Path_1641" class="st10" d="M14.94-21.53c0-10.51-35.06-19.04-78.32-19.04s-78.32,8.52-78.32,19.04
			s35.08,21.25,78.34,21.25S14.94-11.01,14.94-21.53z"/>
		<path id="Path_1642" class="st11" d="M13.12-20.65c0-10.08-33.82-18.26-75.55-18.26s-75.55,8.17-75.55,18.26
			s33.85,20.38,75.57,20.38S13.12-10.57,13.12-20.65z"/>
		<path id="Path_1643" class="st12" d="M-40.99-13.41c3.17-1.46,6.2-3.68,7.15-6.16c1.41-3.67-2.76-6.1-9.98-6.52
			c-6.69-0.39-11.09,0.87-16.25,4.41c-5.89,4.29-13.02,6.74-23.12,6.16c-11.16-0.65-18.07-4.71-15.99-10.11
			c1.16-2.63,3.25-4.74,5.87-5.94l7.16,1.43c-1.62,0.83-4.46,2.56-5.43,5.08c-1.46,3.79,3.83,5.57,8.72,5.85
			c6.69,0.39,10.64-1.11,15.94-4.72c6.49-4.42,13.25-6.48,23.77-5.87c11.05,0.64,19.39,4.37,16.87,10.92
			c-1.03,2.68-4.18,5.49-7.3,6.82L-40.99-13.41z"/>
		<path id="Path_1644" class="st12" d="M-93.56-25.65l-1.15,2.99l-11.42-0.66l1.15-2.99L-93.56-25.65z"/>
		<path id="Path_1645" class="st12" d="M-20.04-21.39l-1.15,2.99l-11.42-0.66l1.15-2.99L-20.04-21.39z"/>
	</g>
	<g id="Coin-20" transform="translate(56.113 29.707)">
		<path id="Path_1646" class="st16" d="M-66.13,17.57c-63.26,0-87.96-18.81-87.96-27.44l0,0c0,0-2.61-15.69,4.93-15.69
			c0,0,48.89,16.12,81.35,16.12c49.26,0,84.27-16.12,84.27-16.12c7.54,0,4.97,7.06,4.97,15.69l0,0C21.43-1.24-3.1,17.57-66.13,17.57
			z"/>
		<path id="Path_1647" class="st9" d="M22-20.42c0-12.92-39.42-23.4-88.05-23.4s-88.05,10.48-88.05,23.4S-114.66,5.7-66.02,5.7
			S22-7.5,22-20.42z"/>
		<path id="Path_1648" class="st10" d="M14.39-21.21c0-10.51-35.06-19.04-78.32-19.04s-78.32,8.52-78.32,19.04
			s35.08,21.25,78.34,21.25S14.39-10.7,14.39-21.21z"/>
		<path id="Path_1649" class="st11" d="M12.56-20.34c0-10.08-33.82-18.26-75.55-18.26s-75.55,8.17-75.55,18.26
			s33.85,20.38,75.57,20.38S12.56-10.25,12.56-20.34z"/>
		<path id="Path_1650" class="st12" d="M-41.55-13.1c3.17-1.46,6.2-3.68,7.15-6.16c1.41-3.67-2.76-6.1-9.98-6.52
			c-6.69-0.39-11.09,0.87-16.25,4.41c-5.89,4.29-13.02,6.74-23.12,6.16c-11.16-0.65-18.07-4.71-15.99-10.11
			c1.16-2.63,3.25-4.74,5.87-5.94l7.16,1.43c-1.62,0.83-4.46,2.56-5.43,5.08c-1.46,3.79,3.83,5.57,8.72,5.85
			c6.69,0.39,10.64-1.11,15.94-4.72c6.49-4.42,13.25-6.48,23.77-5.87c11.05,0.64,19.39,4.37,16.87,10.92
			c-1.03,2.68-4.18,5.49-7.3,6.82L-41.55-13.1z"/>
		<path id="Path_1651" class="st12" d="M-94.12-25.33l-1.15,2.99L-106.69-23l1.15-2.99L-94.12-25.33z"/>
		<path id="Path_1652" class="st12" d="M-20.59-21.08l-1.15,2.99l-11.42-0.66l1.15-2.99L-20.59-21.08z"/>
	</g>
	<g id="Coin-21" transform="translate(70.967)">
		<path id="Path_1653" class="st16" d="M-66.39,18.09c-63.26,0-87.96-18.81-87.96-27.44l0,0c0,0-2.61-15.69,4.93-15.69
			c0,0,48.89,16.12,81.35,16.12c49.26,0,84.27-16.12,84.27-16.12c7.54,0,4.97,7.06,4.97,15.69l0,0
			C21.17-0.72-3.35,18.09-66.39,18.09z"/>
		<path id="Path_1654" class="st9" d="M21.75-19.91c0-12.92-39.42-23.4-88.05-23.4s-88.05,10.48-88.05,23.4s39.45,26.12,88.08,26.12
			S21.75-6.98,21.75-19.91z"/>
		<path id="Path_1655" class="st10" d="M14.13-20.7c0-10.51-35.06-19.04-78.32-19.04s-78.32,8.52-78.32,19.04
			s35.08,21.25,78.34,21.25S14.13-10.18,14.13-20.7z"/>
		<path id="Path_1656" class="st11" d="M12.3-19.82c0-10.08-33.82-18.26-75.55-18.26s-75.55,8.17-75.55,18.26
			s33.85,20.38,75.57,20.38S12.3-9.74,12.3-19.82z"/>
		<path id="Path_1657" class="st12" d="M-41.8-12.58c3.17-1.46,6.2-3.68,7.15-6.16c1.41-3.67-2.76-6.1-9.98-6.52
			c-6.69-0.39-11.09,0.87-16.25,4.41c-5.89,4.29-13.02,6.74-23.12,6.16c-11.16-0.65-18.07-4.71-15.99-10.11
			c1.16-2.63,3.25-4.74,5.87-5.94l7.16,1.43c-1.62,0.83-4.46,2.56-5.43,5.08c-1.46,3.79,3.83,5.57,8.72,5.85
			c6.69,0.39,10.64-1.11,15.94-4.72c6.49-4.42,13.25-6.48,23.77-5.87c11.05,0.64,19.39,4.37,16.87,10.92
			c-1.03,2.68-4.18,5.49-7.3,6.82L-41.8-12.58z"/>
		<path id="Path_1658" class="st12" d="M-94.38-24.82l-1.15,2.99l-11.42-0.66l1.15-2.99L-94.38-24.82z"/>
		<path id="Path_1659" class="st12" d="M-20.85-20.56L-22-17.57l-11.42-0.66l1.15-2.99L-20.85-20.56z"/>
	</g>
</g>
<path id="Shape-1918" class="st17" d="M307.88,243.73l6.75-30.89l15.87,1.34l2.53,30.25l-0.8,19.03L307.88,243.73z"/>
<path id="Shape-1919" class="st7" d="M183.59,206c-17.68,7.33-19.47,51.83,26.89,49.53c6.67-0.33-15.75,13.03-4.23,24.58
	c15.53,15.57,51.63,18.57,76.35,0.13c12.4-9.24,7.6-42.11,24.7-44.86c3.64-0.59,8.83-6.04,9.74-11.03
	c2.11-11.61,14.94-22.74,22.86-26.5c17.9-8.51,8.86-28.95-4.11-31.21c-12.47-2.17-22.27-4.51-30.84,6.28
	c-7.47,9.42-5.06,17.1-10.76,18.35c-3.94,0.86-9.2-3.52-19.97-3.16c-22.8,0.75-24.82,14.6-29.95,20.37
	C231.25,223.11,214.08,193.36,183.59,206z"/>
<path id="Shape-1920" class="st17" d="M350.58,617.18l-8.54-1.21l-17.53-23.92c0,0-36.59-119.16-12.89-145.92
	c5.47-6.18,25.61-0.56,25.61-0.56l-3.46,142.21L350.58,617.18z"/>
<path id="Shape-1921" class="st7" d="M324.36,600.86c0.33,0.09,1.36,17.83,1.36,17.83l1.8,0.08c0,0,1.76-17.28,2.15-17.26
	c5.28,0.34,6.78,17.29,13.66,17.29c0.15,0,7.87,0.05,7.93-0.01c1.61-1.42-2.23-4.48-2.23-4.48s-4.77-1.2-6.25-2.98
	c-4.83-5.86-11.81-18.57-13.39-20.23c-2.19-2.3-5.86-2.1-5.86-2.1S321.32,600.05,324.36,600.86z"/>
<path id="Shape-1922" class="st18" d="M316.25,592.34l16.29,24.66l-6.99-1.51l-19.08-22.57c0,0-39.59-123.79-25.5-141.33
	c5.17-6.43,33.01,0,33.01,0L316.25,592.34z"/>
<rect id="Shape-1923" x="425.31" y="290.38" transform="matrix(0.4161 -0.9093 0.9093 0.4161 -18.3257 563.2761)" class="st18" width="8.29" height="11.06"/>
<path id="Shape-1924" class="st18" d="M429.81,297.23c0.64-3.52,1.73-5.75,9-4.06c4.53,1.06,3.76,2.35,3.12,5.87
	s-3.17,5.1-7.75,4.26C429.61,302.47,429.17,300.74,429.81,297.23z"/>
<path id="Shape-1925" class="st19" d="M427.57,300.36c0,0-45.61-10.91-60.04-16.92c-4.07-1.69-35.08-29.54-35.08-29.54
	s-3.59-15.72,0.8-18.19c8.48-4.77,49.64,32.07,49.64,32.07l46.93,21.32L427.57,300.36z"/>
<path id="Shape-1926" class="st20" d="M341.89,339.73l-55.44-6.97c0,0-6.57-51.56-1.38-76.27c0.97-4.6,11.73-19.59,22.5-25.92
	c2.61-1.53,22.31,16.05,22.31,16.05l2.1-14.54c5.91,4.03,11.84,3.06,19.04,14.65c8.17,13.14,9.75,33.54,3.71,43.81
	C345.25,306.62,341.89,339.73,341.89,339.73z"/>
<path id="Shape-1927" class="st18" d="M348.36,207.29c-0.77,0.95-4.69-1.71-4.75,1.19c-0.29,14.59-7.1,21.98-12.97,20.01
	c-5.77-1.94-8.63-6.58-12.19-8.78c-0.18-0.11,2.54-6.84,3.18-12.29c0.35-2.95-4.02-10.88-2.85-12.59c3.22-4.71,4.59,0.15,7.82-0.08
	c14.54-1.03,6.25-17.04,9.54-18.58c0.16-0.08,8.23,11.6,8.21,21.41C344.34,200.82,350.01,205.25,348.36,207.29z"/>
<path id="Shape-1928" class="st21" d="M339.53,468.51c-9.27,6.96-50.86,14.31-66.22,1.9c-12.72-10.28-4.65-32.33-5.02-50.22
	c-0.4-19.16-4.9-72.44,18.13-87.69c0.31-0.21,15.11,1.91,15.45,1.95l39.96,5.22C350.71,344.63,344.44,464.83,339.53,468.51z"/>
<path id="Shape-1929" class="st18" d="M434.74,296.26c1.99-3.52,3.56-5.74,6.03-3.87c1.54,1.16,2,3.77,0.01,7.29
	c-1.99,3.52-4.62,4.82-6.29,3.87C432.83,302.6,432.75,299.78,434.74,296.26z"/>
<path id="Shape-1930" class="st7" d="M306.12,600.86c0.33,0.09,1.36,17.83,1.36,17.83l1.8,0.08c0,0,1.76-17.28,2.16-17.26
	c5.28,0.34,6.78,17.29,13.66,17.29c0.15,0,7.87,0.05,7.93-0.01c1.61-1.42-2.23-4.48-2.23-4.48s-4.77-1.2-6.25-2.98
	c-4.83-5.86-11.81-18.57-13.39-20.23c-2.19-2.3-5.85-2.1-5.85-2.1S303.07,600.05,306.12,600.86z"/>
<path id="Shape-1931" class="st6" d="M451.65,395.17c0.37-4.21-16.02-154.19-16.02-154.19s-221.04,72.71-277.16,25.66
	c-2.11-1.77-6.07,195.17-6.07,195.17S444.97,471.45,451.65,395.17z"/>
<path id="Shape-1932" class="st7" d="M206.46,454.65c-25.7,0-42.97-0.78-43.29-0.79l-3.99-0.18l0.12-3.99
	c0.01-0.4,1.26-40.44,2.72-80.08c0.86-23.29,1.63-41.89,2.28-55.28c0.39-7.97,0.74-14.17,1.05-18.43c0.52-7.21,0.68-9.39,3.2-10.55
	l2.28-1.05l2,1.57c19.75,15.78,68.8,14.95,141.86-2.41c36.17-8.79,71.86-19.46,106.92-31.97l4.79-1.76l0.63,5.07
	c0.04,0.34,4.32,34.69,8.37,69.05c8.31,70.47,7.66,72.19,7.08,73.71l0,0c-10.86,28.68-61.47,46.83-150.42,53.95
	C260.83,454,230.09,454.65,206.46,454.65z M167.54,445.92c14.81,0.52,68.6,1.93,123.97-2.51c105.61-8.46,136.26-30.82,143.24-48.28
	c0.19-7.71-8.66-82.29-15.12-134.31c-13.98,4.93-56.6,19.49-102.98,30.51c-70.7,16.8-118.79,18.37-143.18,4.68
	C171.89,317.54,169.21,392.54,167.54,445.92L167.54,445.92z"/>
<g id="Shape-1933" transform="translate(127.989 90.148)">
	<g id="Group_3203" transform="translate(0 5.887)">
		<path id="Path_1694" class="st7" d="M157.78,296.53c5.66,2.35,11.85,3.14,17.92,2.3c9.81-1.46,14.78-7.49,13.66-14.99
			c-1.03-6.95-5.59-10.33-16.2-12.69c-12.77-2.5-21.2-7.66-22.76-18.14c-1.72-11.58,6.6-21.6,21.04-23.75
			c7.61-1.13,13.38-0.18,16.97,1.2l-1.48,8.22c-4.69-1.69-9.72-2.18-14.64-1.43c-10.14,1.51-13.1,8.14-12.35,13.22
			c1.03,6.95,6.06,9.69,16.9,12.14c13.29,2.99,20.59,8.1,22.21,19.02c1.7,11.47-5.31,22.65-22.84,25.25
			c-7.17,1.06-15.31,0.13-19.67-1.92L157.78,296.53z"/>
	</g>
	<path id="Path_4946" class="st7" d="M163.45,230.04l8-1.19l1.76,11.85l-8,1.19L163.45,230.04z"/>
	<path id="Path_4947" class="st7" d="M174.78,306.34l8-1.19l1.76,11.85l-8,1.19L174.78,306.34z"/>
</g>
<path id="Shape-1934" class="st7" d="M427.39,263.99c-2.07,4.68-7.54,6.8-12.22,4.74c-4.68-2.07-6.8-7.54-4.74-12.22
	c0.13-0.3,5.37,0.13,9.73,2.06C424.28,260.39,427.52,263.7,427.39,263.99z"/>
<path id="Shape-1935" class="st7" d="M430.32,408.47c-5.94-1.5-9.54-7.52-8.04-13.46c1.5-5.94,7.52-9.54,13.46-8.04
	c0.22,0.06,0.45,0.12,0.67,0.19c0.39,0.11,0.79,6.41-0.79,11.88C434.15,404.21,430.7,408.58,430.32,408.47z"/>
<path id="Shape-1936" class="st7" d="M181.57,292.79c2.8,4.28,1.6,10.03-2.68,12.83s-10.03,1.6-12.83-2.68
	c-0.03-0.04-0.05-0.08-0.08-0.12c-0.18-0.28,1.82-6.66,5.83-9.22C175.61,291.17,181.4,292.52,181.57,292.79z"/>
<path id="Shape-1937" class="st7" d="M161.99,437.5c3.53-3.71,9.4-3.85,13.11-0.32c3.71,3.53,3.85,9.4,0.32,13.11l0,0
	c-0.23,0.24-6.9-0.2-10.34-3.49C161.82,443.67,161.77,437.72,161.99,437.5z"/>
<circle id="Shape-1938" class="st7" cx="219.28" cy="371.04" r="26.76"/>
<circle id="Shape-1939" class="st7" cx="385.49" cy="346.89" r="26.76"/>
<path id="Shape-1940" class="st18" d="M438.19,298.27c0.36-5.4,0.97-8.99,5.04-8.17c2.54,0.51,4.6,3.39,4.24,8.79
	c-0.36,5.4-2.79,8.49-5.35,8.32C439.55,307.04,437.83,303.67,438.19,298.27z"/>
<path id="Shape-1941" class="st18" d="M170.65,276.07c-2.29-0.12-4.58,0-6.84,0.34c-2.88,0.43-5.02,0.58-7.81,2.39
	c-2.08,1.35-2.73,6.97-2.24,8.8c2.3,8.58,10.06-0.29,10.06-0.29l6.83-0.2L170.65,276.07z"/>
<path id="Shape-1942" class="st22" d="M164.86,287.45l0.1-11.35l58.13-8.88c0,0,77.17-39.19,85.27-36.69
	c0.44,0.14-24.93,38.56-24.93,38.56l-50.69,17.74L164.86,287.45z"/>
</svg>
