<?xml version="1.0" encoding="utf-8"?>
<!-- Generator: Adobe Illustrator 25.2.1, SVG Export Plug-In . SVG Version: 6.00 Build 0)  -->
<svg version="1.1" id="Layer_1" xmlns="http://www.w3.org/2000/svg" xmlns:xlink="http://www.w3.org/1999/xlink" x="0px" y="0px"
	 viewBox="0 0 1080 1080" style="enable-background:new 0 0 1080 1080;" xml:space="preserve">
	<style type="text/css">
		@import url('https://fonts.googleapis.com/css2?family=Montserrat:wght@100');
		.st0{font-family:'Montserrat-ExtraBoldItalic';}
		.st1{font-size:135.7935px;}
		.st2{fill:#221F20;}
		.st3{opacity:0.68;fill:#9CFF7B;enable-background:new    ;}
		.st4{fill:#FFFFFF;}
		.st5{fill:#4BDD07;}
	</style>
<text transform="matrix(1 0 0 1 350.7925 601.9385)" class="st0 st1">Mis</text>
<path class="st2" d="M299.8,636H71.2c-1.2,0-2.2-1-2.2-2.2V475.2c0-1.2,1-2.2,2.2-2.2h228.5c1.2,0,2.2,1,2.2,2.2v158.5
	C302,635,301,636,299.8,636z"/>
<polyline class="st2" points="241.5,473.2 241.5,409 69,473.2 "/>
<polygon class="st3" points="274.5,436.5 69,473.2 274.5,473.2 "/>
<path class="st4" d="M125.9,536.5c0,0.4,0,0.8,0,1.3c0,31.2,26.3,56.5,58.7,56.5c32.4,0,58.7-25.3,58.7-56.5c0-0.4,0-0.8,0-1.3
	H125.9z"/>
<text transform="matrix(1 0 0 1 610.8857 602.0898)" class="st5 st0 st1">Lucas</text>
</svg>
