<?xml version="1.0" encoding="utf-8"?>
<!-- Generator: Adobe Illustrator 25.2.1, SVG Export Plug-In . SVG Version: 6.00 Build 0)  -->
<svg version="1.1" id="Layer_1" xmlns="http://www.w3.org/2000/svg" xmlns:xlink="http://www.w3.org/1999/xlink" x="0px" y="0px"
	 viewBox="0 0 1080 1080" style="enable-background:new 0 0 1080 1080;" xml:space="preserve">
<style type="text/css">
	.st0{font-family:'Montserrat-ExtraBoldItalic';}
	.st1{font-size:135.7935px;}
	.st2{fill:#221F20;}
	.st3{opacity:0.68;fill:#9CFF7B;}
	.st4{fill:#FFFFFF;}
	.st5{fill:#4BDD07;}
</style>
<text transform="matrix(1 0 0 1 350.7925 601.9385)" class="st0 st1">Mis</text>
<path class="st2" d="M299.75,636H71.25c-1.24,0-2.25-1.01-2.25-2.25V475.25c0-1.24,1.01-2.25,2.25-2.25h228.51
	c1.24,0,2.25,1.01,2.25,2.25v158.51C302,634.99,300.99,636,299.75,636z"/>
<polyline class="st2" points="241.47,473.22 241.47,409 69,473.22 "/>
<polygon class="st3" points="274.5,436.52 69,473.22 274.5,473.22 "/>
<path class="st4" d="M125.91,536.52c-0.01,0.42-0.03,0.84-0.03,1.26c0,31.23,26.29,56.54,58.71,56.54
	c32.43,0,58.71-25.31,58.71-56.54c0-0.42-0.02-0.84-0.03-1.26H125.91z"/>
<text transform="matrix(1 0 0 1 610.8857 602.0898)" class="st5 st0 st1">Lucas</text>
</svg>
